<?xml version="1.0" encoding="utf-8"?>
<!-- Generator: Adobe Illustrator 24.0.1, SVG Export Plug-In . SVG Version: 6.00 Build 0)  -->
<svg version="1.1" id="Layer_1" xmlns="http://www.w3.org/2000/svg" xmlns:xlink="http://www.w3.org/1999/xlink" x="0px" y="0px"
	 viewBox="0 0 566.93 566.93" style="enable-background:new 0 0 566.93 566.93;" xml:space="preserve">
<g>
	<path class="st0" d="M338.31,408.99c0.01-0.2,0.02-0.39,0.03-0.59c1.51-26.1,43.29-37.38,53.66,3.59c0,0,20.72-19.94,11.65-47.94
		c-9.07-28-52.11-34.22-31.63-54.19c20.12-19.61,45.18,51,45.18,51c25-59.88,5.12-81.03-51.88-94.26
		c-30.47,72.67-123.98,232.3-77.17,249.2c80.11,28.92,143.79-71.26,128.86-131.87C396.38,440.79,336.97,439.77,338.31,408.99z"/>
	<path class="st0" d="M435.24,394.97c54.61,51.24,33.35,120.45,34.98,118.61c77.51-87.74-61.4-109.9-30.56-173.09
		c22.25-45.6,8.3-91.42,7.16-103.23c57.93,23.53,85.78,76.21,75.83,144.45c-51.69-19.55-13.49-77.08-44.82-95.33
		c-30.65,66.44,143.4,256.31,28.34,255.39l-194.31,0.92C311.39,540.51,430.42,515.83,435.24,394.97z"/>
	<path class="st0" d="M159.12,220c5.74,35.69,10.36,67.26,15.98,98.57c5.93,33.08,3.08,62.18-17.89,87.73
		c-35.01,42.46,10.91,115.67,17.54,136.39c-96.52-0.98-68.47-143.52-71.44-153.19C69.29,408.42,61.37,517,111.98,541.12
		c-19.91,0-64.2,1.57-80.97,1.57C31.01,518.1-3.64,341.97,159.12,220z M125.59,389.97c0,0,37.07-37.15,22.7-96.01
		C148.29,293.96,87.3,328.2,125.59,389.97z"/>
	<path class="st0" d="M452.68,207.65c-36.61,30.54-12.69,42.17-13.45,68.96c-13.45-13.19-49.57-55.03-18.59-87.45
		c17.5-18.32-15.6-54.47-52.33-159.23c96.25,22.96,75.77,91.98,83.67,111.01c12.03-28.32,46.82-88.68-28.2-91.67
		c15.7-25.11,45.08-29.76,119.9-20.83c2.31,120.29-58.98,144.12-58.98,144.12c51.07,16.12,42.26,54.8,33.06,123.78
		C510.3,237.25,452.25,235.02,452.68,207.65z"/>
	<path class="st0" d="M428.93,278.53c-95.69-20.42-93.83-76.92-108.46-96.94c-3.74-5.11-14.21,133.87-84.74,141.1
		c67.99-127.95,0-132.89,109.56-293.31C445.49,168.57,372.05,245.84,428.93,278.53z M363.99,183.86
		c0.54-29.12-10.67-61.74-22.14-70.26c-0.46,8.57-8.58,31.06-9.45,40.24C341.43,161.85,353.48,174.54,363.99,183.86z"/>
	<path class="st0" d="M173.71,235.45c38.59,33.4,32.65,92.47,63.82,107.86c57.51-36.38,83.86-71.52,82.9-139.43
		c55.73,158.85-41.74,162.59-54.23,167c78.66,13.92-59.67,121.53,23.46,170.91c-157.37,0.9-18.71-110.13-67.1-132.21
		c0,0-18.75,125.5-39.97,124.65c-69.62-118.86,21.86-153.38,21.86-153.38C188.31,363.71,172.01,271.96,173.71,235.45z"/>
	<path class="st0" d="M214.19,27.18c28.9,10.62,35.62,44.55,21.5,71.91c-20.5,39.71-35.12,65.55-21.5,118.71
		c-28.13-57.3-34.2-106.3-10.19-167.07C150.94,60.78,99.15,251.38,71.14,227.18C58.76,216.5,74.38,200.87,82,192.69
		c15.97-17.14,33.36-33.19,45.25-53.63c11.17-19.2,15.4-42.62,12.07-64.64c-12.67-64.38-63.48-53.39-85.78-39.68
		c-25.61,15.74-49.34,77.97,0,92.48c0,0-6.12-37.95,17.81-44.12c23.93-6.17,38.22,30.5-1.22,59.9
		c-28.57,21.29-49.14,56.77-49.18,92.74c-0.03,22.59,5.75,44.64,9.99,66.67c4.38,22.74,7.85,46.12,4.41,69.24
		c15.63-10.06,14.33-70.34,53.38-101.87c48.11-38.85,67.94-63.38,73.58-75.52c32.09,35.89,48.85,72.48,59.88,107.86
		c48.4-27.34,27.56-218.09,112.39-274.94H214.19z"/>
</g>
</svg>
